<?xml version="1.0" encoding="UTF-8"?>
<svg version="1.1" viewBox="0 0 1472 1472" width="368" height="368" xmlns="http://www.w3.org/2000/svg">
<path transform="translate(0)" d="m0 0h1472v1472h-1472z" fill="#FDFDFC"/>
<path transform="translate(669,198)" d="m0 0h48l1 29v28h14l26 1v18l-1 1-17 1h-22l1 67 3 5 44 24 26 14 34 18 23 12 22 12 37 19 18 10 16 8 34 18 18 10 32 17 35 18 19 10 25 13 22 12 31 16 46 25 3 3v32l-1 1h-15l45 8 1 1v84l-1 226-1 1h-25l-84-2h-48l-60 2-31 2-34 4-31 5-34 8-29 9-27 11-22 11-20 12-16 13-8 7h-2l-1 3-8 7-3 3h-2l-6-9-14-14-16-11-18-10-23-11-26-10-27-9-30-8-26-5-40-5-40-3-36-2-43-1h-27l-47 1-50 2h-11l-1-2-1-158v-151l44-9 14-2v67l-2 231h124l43 2 43 4 35 5 34 7 25 7 21 7 21 9 23 12 15 10 14 11 15 15 8 10 7 9 3 1 2-4 10-14 15-16 17-13 14-9 16-9 20-9 24-9 28-8 33-7 40-6 39-4 17-1 37-1h107l5-1v-293l-2-1-15-1v210l-7 6-28 16-19 11-12 6-24 14-22 13-22 12-6 3h-3l1-131v-183l-9-7-39-26-43-29-44-29-43-29-44-29-43-29-38-25-18-12-7 4-18 14-39 30-30 23-17 13-18 14-26 20-82 63-34 26-9 7-1 2-1 122v169l-8-1-41-12-20-6-3-2-1-209v-59l-30-1v-33l8-3 14-3 29-5 12-6 17-13 36-28 13-10 18-14 39-30 18-14 13-10 18-14 13-10 18-14 26-20 18-14 19-14 16-12 8-7 1-2v-65l-9-1-30-1-1-1v-17l4-2 36-1z" fill="#0681C1"/>
<path transform="translate(324,638)" d="m0 0h2v67l-2 231h124l43 2 43 4 35 5 34 7 25 7 21 7 21 9 23 12 15 10 14 11 15 15 8 10 7 9 3 1 2-4 10-14 15-16 17-13 14-9 16-9 20-9 24-9 28-8 33-7 40-6 39-4 17-1 37-1h107l5-1 1-294 16 1 40 7 1 1v84l-1 226-1 1h-25l-84-2h-48l-60 2-31 2-34 4-31 5-34 8-29 9-27 11-22 11-20 12-16 13-8 7h-2l-1 3-8 7-3 3h-2l-6-9-14-14-16-11-18-10-23-11-26-10-27-9-30-8-26-5-40-5-40-3-36-2-43-1h-27l-47 1-50 2h-11l-1-2-1-158v-151l44-9z" fill="#084365"/>
<path transform="translate(1471,1184)" d="m0 0h1v283l-6 3-4-1-1-1h-307l-43-1 3-3 11-6 16-10 23-14 23-15 16-10 34-23 28-20 19-14 18-14 14-11 17-14 13-11 11-9 10-9 8-7 11-10 8-7 17-16z" fill="#E7E8E7"/>
<path transform="translate(690,601)" d="m0 0h9l15 2 19 7 13 8 12 10v2h2l10 14 9 19 5 18 2 19 1 18v110l-1 45-1 6-2 1h-27l-141-1-1-15-1-32v-58l1-52 1-33 2-18 4-16 8-16 10-13 8-8 14-9 13-5z" fill="#0681C1"/>
<path transform="translate(112,735)" d="m0 0h9v62l-1 68-1 158 73-10 48-6 57-5 63-4 44-2 58-1 42 1 44 3 40 5 25 5 27 7 40 13 22 9 17 8 16 10 6 4v2l6 2 3 3-4 1-32-13-16-6-42-12-36-8-35-6-41-5-34-2-29-1h-26l-38 1-40 2-52 4-61 6-64 8-114 15-14 2h-8v-308l3-2 36-7z" fill="#084365"/>
<path transform="translate(1384,734)" d="m0 0 11 1 34 6 11 3 2 7-1 111-1 160v31l-14-1-81-11-85-11-47-5-44-4-56-4-28-1h-86l-37 2-44 5-37 6-30 7-29 8-24 9-42 16h-5v-2l4-1 16-11 14-9 22-10 34-12 26-8 23-6 38-7 34-4 27-2 28-1h93l37 1 51 4 72 8 117 14-1-56-2-173z" fill="#084365"/>
<path transform="translate(205,684)" d="m0 0h10v295l129-9 35-2 34-1h25l34 1 32 2 36 4 36 6 30 7 31 9 28 10 24 11 16 8 16 10 9 7 3 3v3l-5-1-33-17-25-10-28-9-33-8-35-6-35-4-43-3-32-1h-31l-43 1-72 3-41 3-78 7-19 1h-22l-1-250v-59l10-4 31-6z" fill="#084365"/>
<path transform="translate(1291,684)" d="m0 0 22 3 31 5 3 1 1 190 1 40v33l-2 36-3 11-2 1-27-1-65-5-64-5-38-2-28-1-62-1-53 1-44 3-36 5-26 5-39 10-32 10-24 10-24 11h-4l2-4 13-11 16-9 19-9 27-10 28-9 34-9 23-5 28-5 17-2 16-1 46-1 110 1 27 1 90 7 19 1z" fill="#084365"/>
<path transform="translate(867,1016)" d="m0 0 4 1-3 2 9-1 4-1 3 1-1 3-7 2-7 3v2l7 1v1l-33 8-27 8-44 17-16 6h-5v-2l4-1 16-11 14-9 22-10 34-12z" fill="#065384"/>
<path transform="translate(803,995)" d="m0 0h2l-3 6 6-3 3-1-1 4 2 1-16 10-6 5 3 3-18 14-9 8h-2l-1 3-8 7-3 3h-2l-6-9-14-14-16-11-9-5 2-2v-4l1-1 7 1v2l3 1v2l5 2 1 2 3-1-2-1 1-3 11 11 8 10 7 9 3 1 2-4 10-14 15-16 17-13z" fill="#065282"/>
<path transform="translate(628,994)" d="m0 0 9 2 28 10 24 11 16 8 16 10 9 7 3 3v3l-5-1-33-17-25-10-18-6-1-4h-3-2l-4-4-9-2-11-6v-1h6z" fill="#065383"/>
<path transform="translate(864 1e3)" d="m0 0h7l-1 3h2v4l3 1-28 8-27 9-29 13-11 5h-4l2-4 13-11 16-9 19-9 16-6 2 1v2l8-3 7-2z" fill="#065688"/>
<path transform="translate(666,1025)" d="m0 0 11 3 25 10 17 8 16 10 6 4v2l6 2 3 3-4 1-32-13-16-6-38-11 4-2h2v-3h-2l-1-4 3-3z" fill="#065484"/>
<path transform="translate(708,1009)" d="m0 0 7 1v2l3 1v2l5 2 1 2 3-1-2-1 1-3 11 11 8 10 7 9 6 1-4 6-2 4h-2l-6-9-14-14-16-11-9-5 2-2v-4z" fill="#065383"/>
<path transform="translate(1078,957)" d="m0 0h48l84 2 25 1v1h-210l-23 1-41 4-7 1h-8v-1l32-4 22-2 45-2z" fill="#E7E8E7"/>
<path transform="translate(997,968)" d="m0 0h147l36 2v1h-25l-112-1-44 1-25 2-14 1 4-2z" fill="#E7E8E7"/>
<path transform="translate(437,1012)" d="m0 0h58l15 1v2h-55l-38 1h-18v-1l19-2z" fill="#0669A2"/>
<path transform="translate(1019,987)" d="m0 0h69l29 1v1h-59l-53 1-32 2h-12l2-2 16-1z" fill="#066CA5"/>
<path transform="translate(462,995)" d="m0 0h46l21 1 41 4 14 2-1-2-3-2h7l12 2v1l-7 1v2l8 1v1l-12-1-40-5-44-3-42-1z" fill="#E7E8E7"/>
<path transform="translate(269,823)" d="m0 0h1l1 118 1 16-1 2h10v1h-11l-1-2z" fill="#0681C1"/>
<path transform="translate(689,1018)" d="m0 0 7 2 16 9 16 11 5 5v3l-5-1-2-6-6-2v-2l-5-2-10-6-9-6-6-3z" fill="#0681C1"/>
<path transform="translate(591 1e3)" d="m0 0h13l14 3v1l-7 2 7 2v1l-8-1-10-2v-2l-8-1z" fill="#F6F6F5"/>
<path transform="translate(720,1048)" d="m0 0 6 2 15 10v2l6 2 3 3-4 1-10-4 2-2-2-1v-2l-5-2-11-8z" fill="#0681C1"/>
<path transform="translate(743,1042)" d="m0 0 6 1 2 3 7-1-4 6-2 4h-2l-6-9z" fill="#084B73"/>
<path transform="translate(562,997)" d="m0 0h11l10 2 1 3h-9l-13-2z" fill="#FEFEFD"/>
<path transform="translate(770,1060)" d="m0 0v3l-8 4-6 2h-5v-2l4-1 8-5z" fill="#066194"/>
<path transform="translate(706,1012)" d="m0 0 5 2 4 3 1 2 6 2v2h2l-1 3-11-6-7-4 2-2z" fill="#084D74"/>
<path transform="translate(971,989)" d="m0 0h29v1l-27 2h-12l2-2z" fill="#0681C1"/>
<path transform="translate(550,994)" d="m0 0h9l21 3v1h-20v-2l-10-1z" fill="#E7E8E7"/>
<path transform="translate(1186,639)" d="m0 0h21v4l-11-1-10-2z" fill="#E7E8E7"/>
<path transform="translate(631,996)" d="m0 0 9 1 3 2-5 2-6-1v-2l-2-1z" fill="#084B71"/>
<path transform="translate(570,1020)" d="m0 0h18l2 1v2l-12-1-8-1z" fill="#0669A1"/>
<path transform="translate(859 1e3)" d="m0 0 1 2 9-2-1 2h-2v4l-6 1-1-3-1-2z" fill="#084061"/>
<path transform="translate(806,1027)" d="m0 0h6l-1 3-7 3h-6l2-2 4-2z" fill="#084B72"/>
<path transform="translate(643 1e3)" d="m0 0h6l5 2-3 3-10-3z" fill="#084B71"/>
<path transform="translate(971,989)" d="m0 0h8v1h-6v2h-12l2-2z" fill="#066197"/>
<path transform="translate(270,948)" d="m0 0h1l1 9-1 2h10v1h-11l-1-2v-7z" fill="#066CA5"/>
<path transform="translate(1346,981)" d="m0 0h1v11l-2 8h-1v-9z" fill="#066DA6"/>
<path transform="translate(554,1016)" d="m0 0 6 1 1 2-17-1v-1z" fill="#066FA9"/>
<path transform="translate(604 1e3)" d="m0 0 9 1 5 1v1l-11 1v-2z" fill="#E7E8E7"/>
</svg>
